HIERARCHY
ROOT Hips
{
	OFFSET 0.000000 0.000000 0.000000
	CHANNELS 6 Xposition Yposition Zposition Zrotation Yrotation Xrotation 
	JOINT LowerBack
	{
		OFFSET 0.000000 0.000000 0.000000
		CHANNELS 3 Zrotation Yrotation Xrotation
		JOINT Spine
		{
			OFFSET 0.028270 2.035590 -0.193380
			CHANNELS 3 Zrotation Yrotation Xrotation
			JOINT Spine1
			{
				OFFSET 0.056720 2.048850 -0.042750
				CHANNELS 3 Zrotation Yrotation Xrotation
				JOINT Neck
				{
					OFFSET 0.000000 0.000000 0.000000
					CHANNELS 3 Zrotation Yrotation Xrotation
					JOINT Neck1
					{
						OFFSET -0.054170 1.746240 0.172020
						CHANNELS 3 Zrotation Yrotation Xrotation
						JOINT Head
						{
							OFFSET 0.104070 1.761360 -0.123970
							CHANNELS 3 Zrotation Yrotation Xrotation
							End Site
							{
								OFFSET 0.000000 0.000000 0.000000
							}
						}
					}
				}
				JOINT LeftShoulder
				{
					OFFSET 0.000000 0.000000 0.000000
					CHANNELS 3 Zrotation Yrotation Xrotation
					JOINT LeftArm
					{
						OFFSET 3.362410 1.200890 -0.311210
						CHANNELS 3 Zrotation Yrotation Xrotation
						JOINT LeftForeArm
						{
							OFFSET 4.983000 -0.000000 -0.000000
							CHANNELS 3 Zrotation Yrotation Xrotation
							JOINT LeftHand
							{
								OFFSET 3.483560 -0.000000 -0.000000
								CHANNELS 3 Zrotation Yrotation Xrotation
								JOINT LeftFingerBase
								{
									OFFSET 0.000000 0.000000 0.000000
									CHANNELS 3 Zrotation Yrotation Xrotation
									JOINT LeftHandIndex1
									{
										OFFSET 0.715260 -0.000000 -0.000000
										CHANNELS 3 Zrotation Yrotation Xrotation
										End Site
										{
											OFFSET 0.000000 0.000000 0.000000
										}
									}
								}
								JOINT LThumb
								{
									OFFSET 0.000000 0.000000 0.000000
									CHANNELS 3 Zrotation Yrotation Xrotation
									End Site
									{
										OFFSET 0.000000 0.000000 0.000000
									}
								}
							}
						}
					}
				}
				JOINT RightShoulder
				{
					OFFSET 0.000000 0.000000 0.000000
					CHANNELS 3 Zrotation Yrotation Xrotation
					JOINT RightArm
					{
						OFFSET -3.136600 1.374050 -0.404650
						CHANNELS 3 Zrotation Yrotation Xrotation
						JOINT RightForeArm
						{
							OFFSET -5.241900 -0.000000 -0.000000
							CHANNELS 3 Zrotation Yrotation Xrotation
							JOINT RightHand
							{
								OFFSET -3.444170 -0.000000 -0.000000
								CHANNELS 3 Zrotation Yrotation Xrotation
								JOINT RightFingerBase
								{
									OFFSET 0.000000 0.000000 0.000000
									CHANNELS 3 Zrotation Yrotation Xrotation
									JOINT RightHandIndex1
									{
										OFFSET -0.622530 -0.000000 -0.000000
										CHANNELS 3 Zrotation Yrotation Xrotation
										End Site
										{
											OFFSET 0.000000 0.000000 0.000000
										}
									}
								}
								JOINT RThumb
								{
									OFFSET 0.000000 0.000000 0.000000
									CHANNELS 3 Zrotation Yrotation Xrotation
									End Site
									{
										OFFSET 0.000000 0.000000 0.000000
									}
								}
							}
						}
					}
				}
			}
		}
	}
}
}
MOTION
Frames: 10
Frame Time: 0.008333
10.504767 19.417726 1.708619 18.356722 -85.567670 7.415025 -0.417240 -0.661383 0.856985 -0.525467 -0.604948 -2.868878 -4.636820 -0.502851 -1.820212 2.720564 -3.218814 6.169732 -3.039870 -0.368280 3.576151 0.000000 0.000000 0.000000 8.535225 -3.618681 -2.628231 -73.582677 -31.413612 13.657557 -179.705077 -79.664057 179.921084 7.013432 -4.574837 -0.330593 -0.117000 0.761458 0.000000 0.000000 0.000000 0.000000 0.000000 0.000000 0.000000 0.869806 -2.590412 -2.948552 67.718717 40.693376 8.094863 -179.787270 88.791203 179.866578 -11.162835 17.056549 -1.765856 0.035397 -0.784415 -0.000000 0.000000 0.000000 0.000000 0.000000 0.000000 0.000000 
10.338016 19.597414 1.698466 18.707043 -85.667085 7.238142 -0.524772 -0.668125 0.675189 -0.524488 -0.606604 -2.864855 -4.508967 -0.497178 -1.703706 2.472088 -3.459676 6.277226 -3.069240 -0.371590 3.603865 0.000000 0.000000 0.000000 9.377239 -3.025921 -2.854555 -73.526581 -30.866170 13.290339 -179.630952 -75.757339 179.916019 7.178529 -4.910474 -0.362512 -0.126088 0.798148 0.000000 0.000000 0.000000 0.000000 0.000000 0.000000 0.000000 0.259911 -3.041429 -3.093789 66.828218 41.045113 7.439169 -179.713819 86.166949 179.859702 -11.548811 17.101925 -1.836010 0.045009 -0.810234 -0.000000 0.000000 0.000000 0.000000 0.000000 0.000000 0.000000 
10.176180 19.765428 1.688501 19.085384 -85.723890 7.035547 -0.619178 -0.685283 0.555255 -0.518650 -0.618789 -2.852318 -4.365547 -0.503550 -1.599032 2.213989 -3.647992 6.393466 -3.101717 -0.375128 3.633104 0.000000 0.000000 0.000000 10.259105 -2.484558 -3.071342 -73.433452 -30.295753 12.771169 -179.581705 -71.891357 179.909342 7.440474 -5.387325 -0.410640 -0.137487 0.840191 0.000000 0.000000 0.000000 0.000000 0.000000 0.000000 0.000000 -0.348334 -3.472556 -3.229237 65.819739 41.428725 6.611543 -179.632860 83.608952 179.851773 -12.030410 17.186055 -1.926866 0.056951 -0.837134 -0.000000 0.000000 0.000000 0.000000 0.000000 0.000000 0.000000 
10.019119 19.922414 1.679102 19.377197 -85.741358 6.914133 -0.690682 -0.709897 0.504778 -0.506189 -0.639427 -2.829942 -4.207233 -0.520067 -1.505589 1.946596 -3.784981 6.518939 -3.137856 -0.378881 3.663785 0.000000 0.000000 0.000000 11.168213 -1.988591 -3.274364 -73.311832 -29.704479 12.108234 -179.563034 -68.092189 179.901257 7.774906 -5.985141 -0.474482 -0.150937 0.887248 -0.000000 0.000000 0.000000 0.000000 0.000000 0.000000 0.000000 -0.949418 -3.884133 -3.355907 64.691763 41.837713 5.608870 -179.544677 81.127904 179.842840 -12.604144 17.315435 -2.039326 0.071399 -0.864953 -0.000000 0.000000 0.000000 0.000000 0.000000 0.000000 0.000000 
9.866590 20.068951 1.670598 19.496119 -85.725317 6.955470 -0.731455 -0.739466 0.524793 -0.485957 -0.666855 -2.796732 -4.036581 -0.545144 -1.419179 1.670876 -3.876672 6.648270 -3.178359 -0.382773 3.694314 0.000000 0.000000 0.000000 12.084719 -1.521051 -3.457155 -73.163591 -29.105930 11.319592 -179.577172 -64.392674 179.892000 8.162336 -6.677926 -0.553239 -0.166418 0.938634 -0.000000 0.000000 0.000000 0.000000 0.000000 0.000000 0.000000 -1.533984 -4.280089 -3.475919 63.446255 42.271813 4.437810 -179.450180 78.737775 179.832966 -13.268319 17.495536 -2.174992 0.088529 -0.893469 -0.000000 0.000000 0.000000 0.000000 0.000000 0.000000 0.000000 
9.718300 20.205416 1.663139 19.389197 -85.684382 7.212274 -0.737259 -0.771597 0.611404 -0.457490 -0.699233 -2.752524 -3.856462 -0.576994 -1.335673 1.387848 -3.931979 6.773208 -3.223316 -0.386677 3.722392 0.000000 0.000000 0.000000 12.992980 -1.064507 -3.613864 -72.991858 -28.510914 10.422017 -179.623828 -60.824007 179.881767 8.590963 -7.445320 -0.646614 -0.184013 0.993630 -0.000000 0.000000 0.000000 0.000000 0.000000 0.000000 0.000000 -2.094112 -4.665938 -3.591967 62.091165 42.731311 3.109143 -179.350439 76.451402 179.822211 -14.023556 17.728661 -2.335763 0.108502 -0.922428 -0.000000 0.000000 0.000000 0.000000 0.000000 0.000000 0.000000 
9.573537 20.332229 1.656823 19.047483 -85.627879 7.699796 -0.706423 -0.804248 0.754681 -0.421114 -0.734820 -2.697335 -3.671621 -0.613768 -1.247309 1.099303 -3.963418 6.881198 -3.272684 -0.390410 3.744584 0.000000 0.000000 0.000000 13.870835 -0.592699 -3.738419 -72.792875 -27.942158 9.439475 -179.698221 -57.422125 179.870749 9.058557 -8.262328 -0.754304 -0.204250 1.051162 -0.000000 0.000000 0.000000 0.000000 0.000000 0.000000 0.000000 -2.619074 -5.050627 -3.707741 60.638565 43.219473 1.641965 -179.246809 74.285936 179.810684 -14.870163 18.011331 -2.523242 0.131405 -0.951377 -0.000000 0.000000 0.000000 0.000000 0.000000 0.000000 0.000000 
9.431656 20.449487 1.651545 18.490495 -85.565062 8.404776 -0.641869 -0.835909 0.942695 -0.377908 -0.771927 -2.632155 -3.486392 -0.653644 -1.149341 0.807598 -3.983440 6.960960 -3.325517 -0.393784 3.757893 0.000000 0.000000 0.000000 14.705078 -0.088159 -3.827644 -72.565773 -27.410565 8.388505 -179.795049 -54.216645 179.859048 9.570844 -9.113442 -0.877005 -0.227699 1.110283 -0.000000 0.000000 0.000000 0.000000 0.000000 0.000000 0.000000 -3.102317 -5.442088 -3.826869 59.105561 43.734699 0.055589 -179.140111 72.252525 179.798514 -15.806591 18.333722 -2.737629 0.157203 -0.979806 -0.000000 0.000000 0.000000 0.000000 0.000000 0.000000 0.000000 
9.291824 20.557075 1.647207 17.754960 -85.503512 9.296884 -0.547059 -0.865369 1.160635 -0.329318 -0.809022 -2.557905 -3.306651 -0.694770 -1.034949 0.515795 -4.005613 7.000448 -3.380394 -0.396587 3.759150 0.000000 0.000000 0.000000 15.475188 0.472858 -3.880196 -72.304252 -26.940302 7.291677 -179.906066 -51.242290 179.846746 10.140797 -9.979535 -1.016009 -0.255281 1.169786 -0.000000 0.000000 0.000000 0.000000 0.000000 0.000000 0.000000 -3.537872 -5.849732 -3.954080 57.512983 44.275118 -1.626515 -179.030635 70.362734 179.785885 -16.826740 18.680174 -2.977426 0.185633 -1.007029 -0.000000 0.000000 0.000000 0.000000 0.000000 0.000000 0.000000 
9.153184 20.654856 1.643491 16.906295 -85.448603 10.319911 -0.431229 -0.891996 1.393290 -0.277805 -0.844647 -2.476743 -3.137282 -0.735417 -0.902253 0.228938 -4.040308 6.993383 -3.435142 -0.398662 3.746814 0.000000 0.000000 0.000000 16.171393 1.097102 -3.898821 -72.006631 -26.539619 6.163929 179.974604 -48.528763 179.833876 10.783167 -10.850141 -1.173710 -0.287642 1.228619 -0.000000 0.000000 0.000000 0.000000 0.000000 0.000000 0.000000 -3.922671 -6.278294 -4.091915 55.884555 44.828913 -3.382446 -178.918480 68.625043 179.773041 -17.918432 19.029682 -3.238433 0.216247 -1.032282 -0.000000 0.000000 0.000000 0.000000 0.000000 0.000000 0.000000 
